<svg xmlns="http://www.w3.org/2000/svg" width="71" height="42" viewBox="0 0 71 42">
    <g fill="none" fill-rule="evenodd">
        <path fill="#FFF"
              d="M58.874 17.858c-1.811-4.142-3.58-7.495-5.228-9.655 8.112-1.498 13.628-.631 14.757 2.792.895 2.71-.855 7.13-4.633 11.985-.665.854-1.41 1.329-2.236 1.496a121.137 121.137 0 0 0-2.66-6.618zm-21.38-5.897a125.3 125.3 0 0 1-1.39.632c-.553-.248-.994-.448-1.391-.632-3.957-1.831-8.965-3.522-13.685-4.583C25.58 2.696 31.029 0 36.103 0c5.61 0 10.662 2.416 15.124 7.367-4.735 1.06-9.763 2.757-13.733 4.594zM18.557 8.207c-3.705 4.57-7.372 12.244-7.779 16.293-.878-.142-1.666-.622-2.364-1.52-3.779-4.854-5.528-9.275-4.634-11.985 1.13-3.426 6.655-4.29 14.777-2.788zm19.676 4.783c4.117-1.839 10.753-3.974 13.964-4.515.259.308.525.656.798 1.041 1.132 1.6 2.343 3.798 3.59 6.442a108.164 108.164 0 0 1 2.792 6.504c.286.727.545 1.405.774 2.02a6.585 6.585 0 0 1-1.53-.476 10.093 10.093 0 0 1-1.596-.885c-9.939-6.522-10.579-6.92-14.016-8.436a27.384 27.384 0 0 0-4.876-1.65l.1-.045zm-26.15 11.487c.456-3.921 4.277-11.753 7.936-15.99 3.57.615 9.559 2.618 13.868 4.522-3.866.842-7.429 2.75-12.685 6.305.177-.12-2.289 1.556-2.95 1.996a62.064 62.064 0 0 1-2.858 1.815c-1.17.692-2.334 1.183-3.311 1.352z"/>
        <path fill="#E5F3F5"
              d="M6.855 34.064H4.16v7.811H2.67v-7.81H0V32.79h6.855v1.273zm9.2 3.506c0 .89-.146 1.671-.438 2.343-.293.672-.712 1.188-1.256 1.547-.544.36-1.17.54-1.878.54-.7 0-1.325-.18-1.873-.54-.548-.36-.97-.872-1.27-1.538-.298-.665-.45-1.432-.454-2.302v-.511c0-.886.15-1.668.448-2.346.3-.678.72-1.197 1.265-1.557.544-.36 1.168-.54 1.872-.54.704 0 1.329.178 1.873.534.544.356.964.867 1.26 1.535.297.667.448 1.444.452 2.33v.505zm-1.5-.474c0-1.006-.182-1.778-.544-2.314-.362-.537-.875-.805-1.54-.805-.649 0-1.156.267-1.522.802-.366.534-.553 1.29-.561 2.267v.524c0 .999.185 1.77.555 2.315.37.545.883.817 1.54.817.665 0 1.176-.266 1.534-.798.358-.533.537-1.31.537-2.334v-.474zM20.39 38.5v3.375h-1.502v-9.084h3.306c.966 0 1.732.265 2.3.793.568.528.852 1.227.852 2.096 0 .89-.278 1.583-.834 2.078-.556.495-1.335.742-2.336.742H20.39zm0-1.266h1.804c.534 0 .942-.133 1.223-.397.28-.264.421-.645.421-1.144 0-.491-.142-.883-.427-1.177-.285-.293-.677-.444-1.175-.452H20.39v3.17zm14.198 1.684c-.087.97-.427 1.725-1.02 2.268-.594.543-1.384.814-2.369.814-.688 0-1.295-.172-1.819-.515s-.929-.83-1.214-1.463c-.284-.632-.433-1.366-.445-2.202v-.849c0-.856.145-1.611.434-2.264.288-.653.703-1.156 1.243-1.51.54-.354 1.164-.53 1.872-.53.954 0 1.722.272 2.303.817.582.545.92 1.314 1.015 2.308h-1.495c-.072-.653-.253-1.124-.544-1.413-.29-.289-.717-.433-1.279-.433-.652 0-1.154.25-1.504.751-.35.502-.53 1.237-.537 2.206v.805c0 .981.167 1.73.501 2.246.335.515.824.773 1.47.773.589 0 1.032-.14 1.329-.418.296-.278.484-.742.564-1.391h1.495zm9.575-1.348c0 .89-.146 1.671-.44 2.343-.292.672-.71 1.188-1.254 1.547-.545.36-1.17.54-1.879.54-.7 0-1.324-.18-1.872-.54-.548-.36-.972-.872-1.27-1.538-.3-.665-.45-1.432-.455-2.302v-.511c0-.886.15-1.668.449-2.346.298-.678.72-1.197 1.264-1.557.544-.36 1.168-.54 1.872-.54.704 0 1.329.178 1.873.534.544.356.964.867 1.26 1.535.298.667.448 1.444.452 2.33v.505zm-1.502-.474c0-1.006-.18-1.778-.543-2.314-.362-.537-.875-.805-1.54-.805-.649 0-1.156.267-1.522.802-.366.534-.553 1.29-.561 2.267v.524c0 .999.185 1.77.555 2.315.37.545.883.817 1.54.817.665 0 1.176-.266 1.534-.798.358-.533.537-1.31.537-2.334v-.474zm4.335 4.78V32.79h2.552c.763 0 1.44.18 2.032.537.592.358 1.05.865 1.374 1.522.325.657.487 1.41.487 2.259v.455c0 .861-.163 1.618-.49 2.271a3.539 3.539 0 0 1-1.394 1.51c-.604.353-1.295.53-2.075.53h-2.486zm1.501-7.812v6.551h.98c.787 0 1.391-.259 1.813-.777.42-.518.636-1.261.644-2.23v-.506c0-.985-.204-1.738-.612-2.258-.407-.52-.999-.78-1.774-.78h-1.05zm12.827 3.756h-3.549v2.795h4.149v1.26h-5.65v-9.084h5.608v1.273h-4.107v2.508h3.55v1.248zm6.335.555h-1.674v3.5h-1.502v-9.084h3.04c.996 0 1.766.235 2.308.705.542.47.813 1.15.813 2.04 0 .608-.14 1.116-.419 1.526-.278.41-.667.725-1.166.945L71 41.794v.081h-1.608l-1.733-3.5zm-1.674-1.266h1.543c.506 0 .902-.134 1.187-.403.285-.268.427-.635.427-1.1 0-.487-.131-.864-.394-1.13-.263-.266-.656-.404-1.178-.412h-1.585v3.045z"/>
    </g>
</svg>
